<svg width="363" height="280" viewBox="0 0 363 280" fill="none" xmlns="http://www.w3.org/2000/svg">
<path d="M108.979 191.328C109.916 191.778 110.89 192.227 111.901 192.677C112.875 193.089 113.924 193.463 115.048 193.801C116.172 194.1 117.408 194.344 118.757 194.531C120.068 194.718 121.51 194.812 123.084 194.812C128.104 194.812 131.981 193.688 134.716 191.44C137.414 189.193 138.762 185.446 138.762 180.201C138.762 177.167 138.294 174.32 137.357 171.66C136.421 168.962 135.035 166.621 133.199 164.635C131.363 162.612 129.097 161.02 126.399 159.859C123.702 158.697 120.611 158.117 117.127 158.117C115.479 158.117 113.98 158.229 112.632 158.454C111.245 158.679 110.009 158.978 108.923 159.353C107.799 159.69 106.806 160.065 105.944 160.477C105.045 160.889 104.24 161.282 103.528 161.657L105.551 172.109H115.666C115.629 171.735 115.591 171.248 115.554 170.648C115.479 170.049 115.423 169.449 115.385 168.85C115.348 168.213 115.31 167.595 115.273 166.996C115.235 166.396 115.217 165.89 115.217 165.478C115.217 165.179 115.235 164.841 115.273 164.467C115.31 164.055 115.404 163.661 115.554 163.287C115.704 162.912 115.947 162.612 116.284 162.388C116.584 162.125 116.996 161.994 117.521 161.994C118.495 161.994 119.394 162.406 120.218 163.23C121.005 164.017 121.717 165.085 122.353 166.434C122.99 167.745 123.552 169.243 124.039 170.929C124.526 172.615 124.938 174.338 125.276 176.099C125.575 177.822 125.819 179.527 126.006 181.213C126.156 182.899 126.231 184.379 126.231 185.652C126.231 186.027 126.212 186.495 126.175 187.057C126.137 187.619 126.025 188.162 125.837 188.687C125.65 189.211 125.369 189.661 124.995 190.036C124.582 190.41 124.039 190.597 123.365 190.597C122.204 190.597 121.08 189.886 119.993 188.462C118.907 187.001 117.951 184.416 117.127 180.707H106.731L108.979 191.328Z" fill="white"/>
<path d="M157.291 84H47.7218L61.9484 107.922H121.724L125.012 121.639H67.8064L81.7939 150.748L131.288 150.369L142.765 209.43H181.5L157.291 84Z" fill="white"/>
<path d="M254.021 191.328C253.084 191.778 252.11 192.227 251.099 192.677C250.125 193.089 249.076 193.463 247.952 193.801C246.828 194.1 245.592 194.344 244.243 194.531C242.932 194.718 241.49 194.812 239.916 194.812C234.896 194.812 231.019 193.688 228.284 191.44C225.586 189.193 224.238 185.446 224.238 180.201C224.238 177.167 224.706 174.32 225.643 171.66C226.579 168.962 227.965 166.621 229.801 164.635C231.637 162.612 233.903 161.02 236.601 159.859C239.298 158.697 242.389 158.117 245.873 158.117C247.521 158.117 249.02 158.229 250.368 158.454C251.755 158.679 252.991 158.978 254.077 159.353C255.201 159.69 256.194 160.065 257.056 160.477C257.955 160.889 258.76 161.282 259.472 161.657L257.449 172.109H247.334C247.371 171.735 247.409 171.248 247.446 170.648C247.521 170.049 247.577 169.449 247.615 168.85C247.652 168.213 247.69 167.595 247.727 166.996C247.765 166.396 247.783 165.89 247.783 165.478C247.783 165.179 247.765 164.841 247.727 164.467C247.69 164.055 247.596 163.661 247.446 163.287C247.296 162.912 247.053 162.612 246.716 162.388C246.416 162.125 246.004 161.994 245.479 161.994C244.505 161.994 243.606 162.406 242.782 163.23C241.995 164.017 241.284 165.085 240.647 166.434C240.01 167.745 239.448 169.243 238.961 170.929C238.474 172.615 238.062 174.338 237.724 176.099C237.425 177.822 237.181 179.527 236.994 181.213C236.844 182.899 236.769 184.379 236.769 185.652C236.769 186.027 236.788 186.495 236.825 187.057C236.863 187.619 236.975 188.162 237.163 188.687C237.35 189.211 237.631 189.661 238.005 190.036C238.418 190.41 238.961 190.597 239.635 190.597C240.796 190.597 241.92 189.886 243.007 188.462C244.093 187.001 245.049 184.416 245.873 180.707H256.269L254.021 191.328Z" fill="white"/>
<path d="M205.709 84H315.278L301.052 107.922H241.276L237.988 121.639H295.194L281.206 150.748L231.712 150.369L220.235 209.43H181.5L205.709 84Z" fill="white"/>
</svg>
