<svg width="188" height="53" viewBox="0 0 188 53" fill="none" xmlns="http://www.w3.org/2000/svg">
<mask id="path-1-outside-1_285_240" maskUnits="userSpaceOnUse" x="19" y="9" width="150" height="35" fill="black">
<rect fill="white" x="19" y="9" width="150" height="35"/>
<path d="M25.6231 41.8699H20.2343C20.0781 41.8699 20 41.7992 20 41.658L20.0937 11.8435C20.0937 11.7305 20.1562 11.674 20.2812 11.674H35.6509C35.8071 11.674 35.8852 11.7305 35.8852 11.8435V16.7384C35.8852 16.8515 35.8227 16.908 35.6977 16.908H25.8574V23.6464H35.6977C35.8227 23.6464 35.8852 23.717 35.8852 23.8583L35.932 28.7744C35.932 28.8874 35.8539 28.9439 35.6977 28.9439H25.8574V41.658C25.8574 41.7992 25.7793 41.8699 25.6231 41.8699Z"/>
<path d="M45.8193 41.8699L40.2899 42.774C40.165 42.774 40.1962 41.7992 40.1962 41.658L40.2899 11.8435C40.2899 11.7305 40.3524 11.674 40.4774 11.674H50.1772C51.9109 11.674 53.5042 12.0554 54.9568 12.8183C56.4094 13.5811 57.5653 14.6053 58.4243 15.8908C59.299 17.1764 59.7364 18.6314 59.7364 20.256C59.7364 21.3155 59.5568 22.2761 59.1975 23.1378C58.8383 23.9996 58.4165 24.7271 57.9323 25.3204C57.4637 25.9137 57.0342 26.3517 56.6437 26.6342C58.3775 28.3718 59.2444 30.4131 59.2444 32.7581L59.2912 41.658C59.2912 41.7992 59.2131 41.8699 59.0569 41.8699H53.6213C53.4963 41.8699 53.4339 41.8275 53.4339 41.7427V32.7581C53.4339 31.7128 53.0278 30.8086 52.2155 30.0458C51.4033 29.283 50.4037 28.9015 49.2166 28.9015H46.0536L46.0067 41.658C46.0067 41.7992 45.9442 41.8699 45.8193 41.8699ZM50.1772 16.8656H46.0536V23.6888H50.1772C51.1612 23.6888 52.0359 23.3568 52.8013 22.6929C53.5823 22.0289 53.9727 21.2166 53.9727 20.256C53.9727 19.3378 53.5979 18.5467 52.8481 17.8827C52.0984 17.2046 51.2081 16.8656 50.1772 16.8656Z"/>
<path d="M61.7279 41.658L67.679 11.8435C67.7102 11.7305 67.7883 11.674 67.9133 11.674H74.8718C74.9968 11.674 75.0749 11.7305 75.1061 11.8435L80.8229 41.658C80.8385 41.7992 80.7761 41.8699 80.6355 41.8699H75.317C75.1608 41.8699 75.0749 41.7992 75.0593 41.658L74.5438 38.4795H68.007L67.4916 41.658C67.4759 41.7992 67.3978 41.8699 67.2573 41.8699H61.9153C61.7904 41.8699 61.7279 41.7992 61.7279 41.658ZM71.1231 21.6545L68.9676 33.8388H73.5832L71.6151 21.6545L71.334 20.0441L71.1231 21.6545Z"/>
<path d="M89.0467 41.8699L83.8297 42.774C83.8297 42.774 83.8297 41.8416 83.8297 41.6438L83.8219 12.0131C83.8219 11.787 83.9469 11.674 84.1968 11.674H88.5312L96.6378 28.7744L96.4035 12.0131C96.4035 11.787 96.5441 11.674 96.8253 11.674L101.863 10C102.05 10 101.863 11.787 101.863 12.0131L101.909 41.6156C101.909 41.7851 101.831 41.8699 101.675 41.8699H97.4579L89.1404 25.8926L89.4918 41.5308C89.4918 41.7568 89.3434 41.8699 89.0467 41.8699Z"/>
<path d="M114.913 42.2937C113.179 42.2937 111.594 41.8981 110.157 41.107C108.735 40.3159 107.603 39.2564 106.759 37.9285C105.932 36.5865 105.518 35.0961 105.518 33.4574L105.564 19.917C105.564 18.3065 105.971 16.8515 106.783 15.5518C107.595 14.238 108.712 13.1856 110.133 12.3945C111.57 11.5893 113.163 11.1866 114.913 11.1866C116.693 11.1866 118.279 11.5751 119.669 12.3521C121.075 13.1291 122.192 14.1815 123.019 15.5094C123.863 16.8232 124.285 18.2924 124.285 19.917V21.9088C124.285 22.0218 124.222 22.0783 124.097 22.0783H118.708C118.583 22.0783 118.521 22.0218 118.521 21.9088V19.917C118.521 18.9563 118.177 18.1299 117.49 17.4377C116.803 16.7455 115.944 16.3994 114.913 16.3994C113.773 16.3994 112.898 16.7526 112.289 17.4589C111.68 18.1652 111.375 18.9846 111.375 19.917V33.4574C111.375 34.5169 111.719 35.3857 112.406 36.0638C113.093 36.7277 113.929 37.0597 114.913 37.0597C115.944 37.0597 116.803 36.6924 117.49 35.9578C118.177 35.2091 118.521 34.3756 118.521 33.4574V31.4443C118.521 31.3313 118.583 31.2748 118.708 31.2748H124.144C124.269 31.2748 124.331 31.3313 124.331 31.4443V33.4574C124.331 35.082 123.91 36.5653 123.066 37.9073C122.207 39.2352 121.075 40.3018 119.669 41.107C118.263 41.8981 116.678 42.2937 114.913 42.2937Z"/>
<path d="M126.206 41.658L132.157 11.8435C132.188 11.7305 132.266 11.674 132.391 11.674H139.35C139.475 11.674 139.553 11.7305 139.584 11.8435L145.301 41.658C145.316 41.7992 145.254 41.8699 145.113 41.8699H139.795C139.639 41.8699 139.553 41.7992 139.537 41.658L139.022 38.4795H132.485L131.969 41.658C131.954 41.7992 131.876 41.8699 131.735 41.8699H126.393C126.268 41.8699 126.206 41.7992 126.206 41.658ZM135.601 21.6545L133.446 33.8388H138.061L136.093 21.6545L135.812 20.0441L135.601 21.6545Z"/>
<path d="M153.923 41.8699H148.487C148.362 41.8699 148.3 41.7992 148.3 41.658L148.394 11.8435C148.394 11.7305 148.456 11.674 148.581 11.674H158.281C160.015 11.674 161.608 12.0554 163.06 12.8183C164.513 13.5811 165.669 14.6053 166.528 15.8908C167.403 17.1764 167.84 18.6314 167.84 20.256C167.84 21.3155 167.66 22.2761 167.301 23.1378C166.942 23.9996 166.52 24.7271 166.036 25.3204C165.567 25.9137 165.138 26.3517 164.747 26.6342C166.481 28.3718 167.348 30.4131 167.348 32.7581L167.395 41.658C167.395 41.7992 167.395 43 167.395 43L161.725 41.8699C161.6 41.8699 161.537 41.8275 161.537 41.7427V32.7581C161.537 31.7128 161.131 30.8086 160.319 30.0458C159.507 29.283 158.507 28.9015 157.32 28.9015H154.157L154.11 41.658C154.11 41.7992 154.048 41.8699 153.923 41.8699ZM158.281 16.8656H154.157V23.6888H158.281C159.265 23.6888 160.14 23.3568 160.905 22.6929C161.686 22.0289 162.076 21.2166 162.076 20.256C162.076 19.3378 161.701 18.5467 160.952 17.8827C160.202 17.2046 159.312 16.8656 158.281 16.8656Z"/>
</mask>
<path d="M25.6231 41.8699H20.2343C20.0781 41.8699 20 41.7992 20 41.658L20.0937 11.8435C20.0937 11.7305 20.1562 11.674 20.2812 11.674H35.6509C35.8071 11.674 35.8852 11.7305 35.8852 11.8435V16.7384C35.8852 16.8515 35.8227 16.908 35.6977 16.908H25.8574V23.6464H35.6977C35.8227 23.6464 35.8852 23.717 35.8852 23.8583L35.932 28.7744C35.932 28.8874 35.8539 28.9439 35.6977 28.9439H25.8574V41.658C25.8574 41.7992 25.7793 41.8699 25.6231 41.8699Z" fill="black"/>
<path d="M45.8193 41.8699L40.2899 42.774C40.165 42.774 40.1962 41.7992 40.1962 41.658L40.2899 11.8435C40.2899 11.7305 40.3524 11.674 40.4774 11.674H50.1772C51.9109 11.674 53.5042 12.0554 54.9568 12.8183C56.4094 13.5811 57.5653 14.6053 58.4243 15.8908C59.299 17.1764 59.7364 18.6314 59.7364 20.256C59.7364 21.3155 59.5568 22.2761 59.1975 23.1378C58.8383 23.9996 58.4165 24.7271 57.9323 25.3204C57.4637 25.9137 57.0342 26.3517 56.6437 26.6342C58.3775 28.3718 59.2444 30.4131 59.2444 32.7581L59.2912 41.658C59.2912 41.7992 59.2131 41.8699 59.0569 41.8699H53.6213C53.4963 41.8699 53.4339 41.8275 53.4339 41.7427V32.7581C53.4339 31.7128 53.0278 30.8086 52.2155 30.0458C51.4033 29.283 50.4037 28.9015 49.2166 28.9015H46.0536L46.0067 41.658C46.0067 41.7992 45.9442 41.8699 45.8193 41.8699ZM50.1772 16.8656H46.0536V23.6888H50.1772C51.1612 23.6888 52.0359 23.3568 52.8013 22.6929C53.5823 22.0289 53.9727 21.2166 53.9727 20.256C53.9727 19.3378 53.5979 18.5467 52.8481 17.8827C52.0984 17.2046 51.2081 16.8656 50.1772 16.8656Z" fill="black"/>
<path d="M61.7279 41.658L67.679 11.8435C67.7102 11.7305 67.7883 11.674 67.9133 11.674H74.8718C74.9968 11.674 75.0749 11.7305 75.1061 11.8435L80.8229 41.658C80.8385 41.7992 80.7761 41.8699 80.6355 41.8699H75.317C75.1608 41.8699 75.0749 41.7992 75.0593 41.658L74.5438 38.4795H68.007L67.4916 41.658C67.4759 41.7992 67.3978 41.8699 67.2573 41.8699H61.9153C61.7904 41.8699 61.7279 41.7992 61.7279 41.658ZM71.1231 21.6545L68.9676 33.8388H73.5832L71.6151 21.6545L71.334 20.0441L71.1231 21.6545Z" fill="black"/>
<path d="M89.0467 41.8699L83.8297 42.774C83.8297 42.774 83.8297 41.8416 83.8297 41.6438L83.8219 12.0131C83.8219 11.787 83.9469 11.674 84.1968 11.674H88.5312L96.6378 28.7744L96.4035 12.0131C96.4035 11.787 96.5441 11.674 96.8253 11.674L101.863 10C102.05 10 101.863 11.787 101.863 12.0131L101.909 41.6156C101.909 41.7851 101.831 41.8699 101.675 41.8699H97.4579L89.1404 25.8926L89.4918 41.5308C89.4918 41.7568 89.3434 41.8699 89.0467 41.8699Z" fill="black"/>
<path d="M114.913 42.2937C113.179 42.2937 111.594 41.8981 110.157 41.107C108.735 40.3159 107.603 39.2564 106.759 37.9285C105.932 36.5865 105.518 35.0961 105.518 33.4574L105.564 19.917C105.564 18.3065 105.971 16.8515 106.783 15.5518C107.595 14.238 108.712 13.1856 110.133 12.3945C111.57 11.5893 113.163 11.1866 114.913 11.1866C116.693 11.1866 118.279 11.5751 119.669 12.3521C121.075 13.1291 122.192 14.1815 123.019 15.5094C123.863 16.8232 124.285 18.2924 124.285 19.917V21.9088C124.285 22.0218 124.222 22.0783 124.097 22.0783H118.708C118.583 22.0783 118.521 22.0218 118.521 21.9088V19.917C118.521 18.9563 118.177 18.1299 117.49 17.4377C116.803 16.7455 115.944 16.3994 114.913 16.3994C113.773 16.3994 112.898 16.7526 112.289 17.4589C111.68 18.1652 111.375 18.9846 111.375 19.917V33.4574C111.375 34.5169 111.719 35.3857 112.406 36.0638C113.093 36.7277 113.929 37.0597 114.913 37.0597C115.944 37.0597 116.803 36.6924 117.49 35.9578C118.177 35.2091 118.521 34.3756 118.521 33.4574V31.4443C118.521 31.3313 118.583 31.2748 118.708 31.2748H124.144C124.269 31.2748 124.331 31.3313 124.331 31.4443V33.4574C124.331 35.082 123.91 36.5653 123.066 37.9073C122.207 39.2352 121.075 40.3018 119.669 41.107C118.263 41.8981 116.678 42.2937 114.913 42.2937Z" fill="black"/>
<path d="M126.206 41.658L132.157 11.8435C132.188 11.7305 132.266 11.674 132.391 11.674H139.35C139.475 11.674 139.553 11.7305 139.584 11.8435L145.301 41.658C145.316 41.7992 145.254 41.8699 145.113 41.8699H139.795C139.639 41.8699 139.553 41.7992 139.537 41.658L139.022 38.4795H132.485L131.969 41.658C131.954 41.7992 131.876 41.8699 131.735 41.8699H126.393C126.268 41.8699 126.206 41.7992 126.206 41.658ZM135.601 21.6545L133.446 33.8388H138.061L136.093 21.6545L135.812 20.0441L135.601 21.6545Z" fill="black"/>
<path d="M153.923 41.8699H148.487C148.362 41.8699 148.3 41.7992 148.3 41.658L148.394 11.8435C148.394 11.7305 148.456 11.674 148.581 11.674H158.281C160.015 11.674 161.608 12.0554 163.06 12.8183C164.513 13.5811 165.669 14.6053 166.528 15.8908C167.403 17.1764 167.84 18.6314 167.84 20.256C167.84 21.3155 167.66 22.2761 167.301 23.1378C166.942 23.9996 166.52 24.7271 166.036 25.3204C165.567 25.9137 165.138 26.3517 164.747 26.6342C166.481 28.3718 167.348 30.4131 167.348 32.7581L167.395 41.658C167.395 41.7992 167.395 43 167.395 43L161.725 41.8699C161.6 41.8699 161.537 41.8275 161.537 41.7427V32.7581C161.537 31.7128 161.131 30.8086 160.319 30.0458C159.507 29.283 158.507 28.9015 157.32 28.9015H154.157L154.11 41.658C154.11 41.7992 154.048 41.8699 153.923 41.8699ZM158.281 16.8656H154.157V23.6888H158.281C159.265 23.6888 160.14 23.3568 160.905 22.6929C161.686 22.0289 162.076 21.2166 162.076 20.256C162.076 19.3378 161.701 18.5467 160.952 17.8827C160.202 17.2046 159.312 16.8656 158.281 16.8656Z" fill="black"/>
<path d="M25.6231 41.8699H20.2343C20.0781 41.8699 20 41.7992 20 41.658L20.0937 11.8435C20.0937 11.7305 20.1562 11.674 20.2812 11.674H35.6509C35.8071 11.674 35.8852 11.7305 35.8852 11.8435V16.7384C35.8852 16.8515 35.8227 16.908 35.6977 16.908H25.8574V23.6464H35.6977C35.8227 23.6464 35.8852 23.717 35.8852 23.8583L35.932 28.7744C35.932 28.8874 35.8539 28.9439 35.6977 28.9439H25.8574V41.658C25.8574 41.7992 25.7793 41.8699 25.6231 41.8699Z" stroke="black" stroke-width="0.551507" mask="url(#path-1-outside-1_285_240)"/>
<path d="M45.8193 41.8699L40.2899 42.774C40.165 42.774 40.1962 41.7992 40.1962 41.658L40.2899 11.8435C40.2899 11.7305 40.3524 11.674 40.4774 11.674H50.1772C51.9109 11.674 53.5042 12.0554 54.9568 12.8183C56.4094 13.5811 57.5653 14.6053 58.4243 15.8908C59.299 17.1764 59.7364 18.6314 59.7364 20.256C59.7364 21.3155 59.5568 22.2761 59.1975 23.1378C58.8383 23.9996 58.4165 24.7271 57.9323 25.3204C57.4637 25.9137 57.0342 26.3517 56.6437 26.6342C58.3775 28.3718 59.2444 30.4131 59.2444 32.7581L59.2912 41.658C59.2912 41.7992 59.2131 41.8699 59.0569 41.8699H53.6213C53.4963 41.8699 53.4339 41.8275 53.4339 41.7427V32.7581C53.4339 31.7128 53.0278 30.8086 52.2155 30.0458C51.4033 29.283 50.4037 28.9015 49.2166 28.9015H46.0536L46.0067 41.658C46.0067 41.7992 45.9442 41.8699 45.8193 41.8699ZM50.1772 16.8656H46.0536V23.6888H50.1772C51.1612 23.6888 52.0359 23.3568 52.8013 22.6929C53.5823 22.0289 53.9727 21.2166 53.9727 20.256C53.9727 19.3378 53.5979 18.5467 52.8481 17.8827C52.0984 17.2046 51.2081 16.8656 50.1772 16.8656Z" stroke="black" stroke-width="0.551507" mask="url(#path-1-outside-1_285_240)"/>
<path d="M61.7279 41.658L67.679 11.8435C67.7102 11.7305 67.7883 11.674 67.9133 11.674H74.8718C74.9968 11.674 75.0749 11.7305 75.1061 11.8435L80.8229 41.658C80.8385 41.7992 80.7761 41.8699 80.6355 41.8699H75.317C75.1608 41.8699 75.0749 41.7992 75.0593 41.658L74.5438 38.4795H68.007L67.4916 41.658C67.4759 41.7992 67.3978 41.8699 67.2573 41.8699H61.9153C61.7904 41.8699 61.7279 41.7992 61.7279 41.658ZM71.1231 21.6545L68.9676 33.8388H73.5832L71.6151 21.6545L71.334 20.0441L71.1231 21.6545Z" stroke="black" stroke-width="0.551507" mask="url(#path-1-outside-1_285_240)"/>
<path d="M89.0467 41.8699L83.8297 42.774C83.8297 42.774 83.8297 41.8416 83.8297 41.6438L83.8219 12.0131C83.8219 11.787 83.9469 11.674 84.1968 11.674H88.5312L96.6378 28.7744L96.4035 12.0131C96.4035 11.787 96.5441 11.674 96.8253 11.674L101.863 10C102.05 10 101.863 11.787 101.863 12.0131L101.909 41.6156C101.909 41.7851 101.831 41.8699 101.675 41.8699H97.4579L89.1404 25.8926L89.4918 41.5308C89.4918 41.7568 89.3434 41.8699 89.0467 41.8699Z" stroke="black" stroke-width="0.551507" mask="url(#path-1-outside-1_285_240)"/>
<path d="M114.913 42.2937C113.179 42.2937 111.594 41.8981 110.157 41.107C108.735 40.3159 107.603 39.2564 106.759 37.9285C105.932 36.5865 105.518 35.0961 105.518 33.4574L105.564 19.917C105.564 18.3065 105.971 16.8515 106.783 15.5518C107.595 14.238 108.712 13.1856 110.133 12.3945C111.57 11.5893 113.163 11.1866 114.913 11.1866C116.693 11.1866 118.279 11.5751 119.669 12.3521C121.075 13.1291 122.192 14.1815 123.019 15.5094C123.863 16.8232 124.285 18.2924 124.285 19.917V21.9088C124.285 22.0218 124.222 22.0783 124.097 22.0783H118.708C118.583 22.0783 118.521 22.0218 118.521 21.9088V19.917C118.521 18.9563 118.177 18.1299 117.49 17.4377C116.803 16.7455 115.944 16.3994 114.913 16.3994C113.773 16.3994 112.898 16.7526 112.289 17.4589C111.68 18.1652 111.375 18.9846 111.375 19.917V33.4574C111.375 34.5169 111.719 35.3857 112.406 36.0638C113.093 36.7277 113.929 37.0597 114.913 37.0597C115.944 37.0597 116.803 36.6924 117.49 35.9578C118.177 35.2091 118.521 34.3756 118.521 33.4574V31.4443C118.521 31.3313 118.583 31.2748 118.708 31.2748H124.144C124.269 31.2748 124.331 31.3313 124.331 31.4443V33.4574C124.331 35.082 123.91 36.5653 123.066 37.9073C122.207 39.2352 121.075 40.3018 119.669 41.107C118.263 41.8981 116.678 42.2937 114.913 42.2937Z" stroke="black" stroke-width="0.551507" mask="url(#path-1-outside-1_285_240)"/>
<path d="M126.206 41.658L132.157 11.8435C132.188 11.7305 132.266 11.674 132.391 11.674H139.35C139.475 11.674 139.553 11.7305 139.584 11.8435L145.301 41.658C145.316 41.7992 145.254 41.8699 145.113 41.8699H139.795C139.639 41.8699 139.553 41.7992 139.537 41.658L139.022 38.4795H132.485L131.969 41.658C131.954 41.7992 131.876 41.8699 131.735 41.8699H126.393C126.268 41.8699 126.206 41.7992 126.206 41.658ZM135.601 21.6545L133.446 33.8388H138.061L136.093 21.6545L135.812 20.0441L135.601 21.6545Z" stroke="black" stroke-width="0.551507" mask="url(#path-1-outside-1_285_240)"/>
<path d="M153.923 41.8699H148.487C148.362 41.8699 148.3 41.7992 148.3 41.658L148.394 11.8435C148.394 11.7305 148.456 11.674 148.581 11.674H158.281C160.015 11.674 161.608 12.0554 163.06 12.8183C164.513 13.5811 165.669 14.6053 166.528 15.8908C167.403 17.1764 167.84 18.6314 167.84 20.256C167.84 21.3155 167.66 22.2761 167.301 23.1378C166.942 23.9996 166.52 24.7271 166.036 25.3204C165.567 25.9137 165.138 26.3517 164.747 26.6342C166.481 28.3718 167.348 30.4131 167.348 32.7581L167.395 41.658C167.395 41.7992 167.395 43 167.395 43L161.725 41.8699C161.6 41.8699 161.537 41.8275 161.537 41.7427V32.7581C161.537 31.7128 161.131 30.8086 160.319 30.0458C159.507 29.283 158.507 28.9015 157.32 28.9015H154.157L154.11 41.658C154.11 41.7992 154.048 41.8699 153.923 41.8699ZM158.281 16.8656H154.157V23.6888H158.281C159.265 23.6888 160.14 23.3568 160.905 22.6929C161.686 22.0289 162.076 21.2166 162.076 20.256C162.076 19.3378 161.701 18.5467 160.952 17.8827C160.202 17.2046 159.312 16.8656 158.281 16.8656Z" stroke="black" stroke-width="0.551507" mask="url(#path-1-outside-1_285_240)"/>
</svg>
